<svg width="175" height="68" viewBox="0 0 175 68" fill="none" xmlns="http://www.w3.org/2000/svg">
<path d="M14.0853 35.5737C12.7573 35.5737 11.5253 35.3577 10.3893 34.9257C9.26928 34.4937 8.29328 33.8857 7.46128 33.1017C6.64528 32.3177 6.00528 31.3977 5.54128 30.3417C5.09328 29.2857 4.86928 28.1337 4.86928 26.8857C4.86928 25.6377 5.09328 24.4857 5.54128 23.4297C6.00528 22.3737 6.65328 21.4537 7.48528 20.6697C8.31728 19.8857 9.29328 19.2777 10.4133 18.8457C11.5333 18.4137 12.7493 18.1977 14.0613 18.1977C15.3893 18.1977 16.6053 18.4137 17.7093 18.8457C18.8293 19.2777 19.7973 19.8857 20.6133 20.6697C21.4453 21.4537 22.0933 22.3737 22.5573 23.4297C23.0213 24.4697 23.2533 25.6217 23.2533 26.8857C23.2533 28.1337 23.0213 29.2937 22.5573 30.3657C22.0933 31.4217 21.4453 32.3417 20.6133 33.1257C19.7973 33.8937 18.8293 34.4937 17.7093 34.9257C16.6053 35.3577 15.3973 35.5737 14.0853 35.5737ZM14.0613 32.2617C14.8133 32.2617 15.5013 32.1337 16.1253 31.8777C16.7653 31.6217 17.3253 31.2537 17.8053 30.7737C18.2853 30.2937 18.6533 29.7257 18.9093 29.0697C19.1813 28.4137 19.3173 27.6857 19.3173 26.8857C19.3173 26.0857 19.1813 25.3577 18.9093 24.7017C18.6533 24.0457 18.2853 23.4777 17.8053 22.9977C17.3413 22.5177 16.7893 22.1497 16.1493 21.8937C15.5093 21.6377 14.8133 21.5097 14.0613 21.5097C13.3093 21.5097 12.6133 21.6377 11.9733 21.8937C11.3493 22.1497 10.7973 22.5177 10.3173 22.9977C9.83728 23.4777 9.46128 24.0457 9.18928 24.7017C8.93328 25.3577 8.80528 26.0857 8.80528 26.8857C8.80528 27.6697 8.93328 28.3977 9.18928 29.0697C9.46128 29.7257 9.82928 30.2937 10.2933 30.7737C10.7733 31.2537 11.3333 31.6217 11.9733 31.8777C12.6133 32.1337 13.3093 32.2617 14.0613 32.2617ZM33.6684 35.4777C32.5804 35.4777 31.6284 35.2377 30.8124 34.7577C29.9964 34.2777 29.3564 33.5497 28.8924 32.5737C28.4444 31.5817 28.2204 30.3337 28.2204 28.8297C28.2204 27.3097 28.4364 26.0617 28.8684 25.0857C29.3004 24.1097 29.9244 23.3817 30.7404 22.9017C31.5564 22.4217 32.5324 22.1817 33.6684 22.1817C34.8844 22.1817 35.9724 22.4617 36.9324 23.0217C37.9084 23.5657 38.6764 24.3337 39.2364 25.3257C39.8124 26.3177 40.1004 27.4857 40.1004 28.8297C40.1004 30.1897 39.8124 31.3657 39.2364 32.3577C38.6764 33.3497 37.9084 34.1177 36.9324 34.6617C35.9724 35.2057 34.8844 35.4777 33.6684 35.4777ZM26.0364 39.9417V22.3737H29.6124V25.0137L29.5404 28.8537L29.7804 32.6697V39.9417H26.0364ZM33.0204 32.4057C33.6444 32.4057 34.1964 32.2617 34.6764 31.9737C35.1724 31.6857 35.5644 31.2777 35.8524 30.7497C36.1564 30.2057 36.3084 29.5657 36.3084 28.8297C36.3084 28.0777 36.1564 27.4377 35.8524 26.9097C35.5644 26.3817 35.1724 25.9737 34.6764 25.6857C34.1964 25.3977 33.6444 25.2537 33.0204 25.2537C32.3964 25.2537 31.8364 25.3977 31.3404 25.6857C30.8444 25.9737 30.4524 26.3817 30.1644 26.9097C29.8764 27.4377 29.7324 28.0777 29.7324 28.8297C29.7324 29.5657 29.8764 30.2057 30.1644 30.7497C30.4524 31.2777 30.8444 31.6857 31.3404 31.9737C31.8364 32.2617 32.3964 32.4057 33.0204 32.4057ZM45.1157 35.2857V24.5817L45.9557 25.4457H40.7477V22.3737H53.2037V25.4457H47.9957L48.8357 24.5817V35.2857H45.1157ZM60.8084 35.4777C59.4324 35.4777 58.2084 35.1897 57.1364 34.6137C56.0804 34.0377 55.2404 33.2537 54.6164 32.2617C54.0084 31.2537 53.7044 30.1097 53.7044 28.8297C53.7044 27.5337 54.0084 26.3897 54.6164 25.3977C55.2404 24.3897 56.0804 23.6057 57.1364 23.0457C58.2084 22.4697 59.4324 22.1817 60.8084 22.1817C62.1684 22.1817 63.3844 22.4697 64.4564 23.0457C65.5284 23.6057 66.3684 24.3817 66.9764 25.3737C67.5844 26.3657 67.8884 27.5177 67.8884 28.8297C67.8884 30.1097 67.5844 31.2537 66.9764 32.2617C66.3684 33.2537 65.5284 34.0377 64.4564 34.6137C63.3844 35.1897 62.1684 35.4777 60.8084 35.4777ZM60.8084 32.4057C61.4324 32.4057 61.9924 32.2617 62.4884 31.9737C62.9844 31.6857 63.3764 31.2777 63.6644 30.7497C63.9524 30.2057 64.0964 29.5657 64.0964 28.8297C64.0964 28.0777 63.9524 27.4377 63.6644 26.9097C63.3764 26.3817 62.9844 25.9737 62.4884 25.6857C61.9924 25.3977 61.4324 25.2537 60.8084 25.2537C60.1844 25.2537 59.6244 25.3977 59.1284 25.6857C58.6324 25.9737 58.2324 26.3817 57.9284 26.9097C57.6404 27.4377 57.4964 28.0777 57.4964 28.8297C57.4964 29.5657 57.6404 30.2057 57.9284 30.7497C58.2324 31.2777 58.6324 31.6857 59.1284 31.9737C59.6244 32.2617 60.1844 32.4057 60.8084 32.4057ZM5.75728 67.2857V54.3737H9.66928L14.5413 63.2057H12.9813L18.1893 54.3737H21.6933L21.7413 67.2857H18.3573V58.2137L18.9333 58.5977L14.4933 66.0377H12.9093L8.44528 58.3337L9.14128 58.1657V67.2857H5.75728ZM31.7396 67.4777C30.2676 67.4777 28.9716 67.1897 27.8516 66.6137C26.7476 66.0377 25.8916 65.2537 25.2836 64.2617C24.6756 63.2537 24.3716 62.1097 24.3716 60.8297C24.3716 59.5337 24.6676 58.3897 25.2596 57.3977C25.8676 56.3897 26.6916 55.6057 27.7316 55.0457C28.7716 54.4697 29.9476 54.1817 31.2596 54.1817C32.5236 54.1817 33.6596 54.4537 34.6676 54.9977C35.6916 55.5257 36.4996 56.2937 37.0916 57.3017C37.6836 58.2937 37.9796 59.4857 37.9796 60.8777C37.9796 61.0217 37.9716 61.1897 37.9556 61.3817C37.9396 61.5577 37.9236 61.7257 37.9076 61.8857H27.4196V59.7017H35.9396L34.4996 60.3497C34.4996 59.6777 34.3636 59.0937 34.0916 58.5977C33.8196 58.1017 33.4436 57.7177 32.9636 57.4457C32.4836 57.1577 31.9236 57.0137 31.2836 57.0137C30.6436 57.0137 30.0756 57.1577 29.5796 57.4457C29.0996 57.7177 28.7236 58.1097 28.4516 58.6217C28.1796 59.1177 28.0436 59.7097 28.0436 60.3977V60.9737C28.0436 61.6777 28.1956 62.3017 28.4996 62.8457C28.8196 63.3737 29.2596 63.7817 29.8196 64.0697C30.3956 64.3417 31.0676 64.4777 31.8356 64.4777C32.5236 64.4777 33.1236 64.3737 33.6356 64.1657C34.1636 63.9577 34.6436 63.6457 35.0756 63.2297L37.0676 65.3897C36.4756 66.0617 35.7316 66.5817 34.8356 66.9497C33.9396 67.3017 32.9076 67.4777 31.7396 67.4777ZM50.0935 67.2857L45.7735 61.1657L48.8215 59.3657L54.5095 67.2857H50.0935ZM40.9495 67.2857V54.3737H44.6935V67.2857H40.9495ZM43.5895 62.3897V59.3897H48.1015V62.3897H43.5895ZM49.1815 61.2617L45.6775 60.8777L50.2135 54.3737H54.1975L49.1815 61.2617ZM59.0907 67.2857V56.5817L59.9307 57.4457H54.7227V54.3737H67.1787V57.4457H61.9707L62.8107 56.5817V67.2857H59.0907ZM75.0474 67.4777C73.5754 67.4777 72.2794 67.1897 71.1594 66.6137C70.0554 66.0377 69.1994 65.2537 68.5914 64.2617C67.9834 63.2537 67.6794 62.1097 67.6794 60.8297C67.6794 59.5337 67.9754 58.3897 68.5674 57.3977C69.1754 56.3897 69.9994 55.6057 71.0394 55.0457C72.0794 54.4697 73.2554 54.1817 74.5674 54.1817C75.8314 54.1817 76.9674 54.4537 77.9754 54.9977C78.9994 55.5257 79.8074 56.2937 80.3994 57.3017C80.9914 58.2937 81.2874 59.4857 81.2874 60.8777C81.2874 61.0217 81.2794 61.1897 81.2634 61.3817C81.2474 61.5577 81.2314 61.7257 81.2154 61.8857H70.7274V59.7017H79.2474L77.8074 60.3497C77.8074 59.6777 77.6714 59.0937 77.3994 58.5977C77.1274 58.1017 76.7514 57.7177 76.2714 57.4457C75.7914 57.1577 75.2314 57.0137 74.5914 57.0137C73.9514 57.0137 73.3834 57.1577 72.8874 57.4457C72.4074 57.7177 72.0314 58.1097 71.7594 58.6217C71.4874 59.1177 71.3514 59.7097 71.3514 60.3977V60.9737C71.3514 61.6777 71.5034 62.3017 71.8074 62.8457C72.1274 63.3737 72.5674 63.7817 73.1274 64.0697C73.7034 64.3417 74.3754 64.4777 75.1434 64.4777C75.8314 64.4777 76.4314 64.3737 76.9434 64.1657C77.4714 63.9577 77.9514 63.6457 78.3834 63.2297L80.3754 65.3897C79.7834 66.0617 79.0394 66.5817 78.1434 66.9497C77.2474 67.3017 76.2154 67.4777 75.0474 67.4777ZM84.2573 67.2857V54.3737H97.0973V67.2857H93.3533V56.6057L94.1933 57.4457H87.1373L87.9773 56.6057V67.2857H84.2573Z" fill="white"/>
<path d="M1 13.5L47.8234 3L174 13.5" stroke="#FC724D" stroke-width="5"/>
</svg>
