<svg width="257" height="55" viewBox="0 0 257 55" fill="none" xmlns="http://www.w3.org/2000/svg">
<rect x="1" y="1" width="255" height="53" rx="15" stroke="#1100D9" stroke-width="2"/>
<path d="M53.41 34V22.804L53.968 23.38H49.252V21.4H59.908V23.38H55.192L55.732 22.804V34H53.41ZM65.1737 34.126C64.1897 34.126 63.3137 33.916 62.5457 33.496C61.7777 33.064 61.1717 32.476 60.7277 31.732C60.2837 30.988 60.0617 30.142 60.0617 29.194C60.0617 28.234 60.2837 27.388 60.7277 26.656C61.1717 25.912 61.7777 25.33 62.5457 24.91C63.3137 24.49 64.1897 24.28 65.1737 24.28C66.1697 24.28 67.0517 24.49 67.8197 24.91C68.5997 25.33 69.2057 25.906 69.6377 26.638C70.0817 27.37 70.3037 28.222 70.3037 29.194C70.3037 30.142 70.0817 30.988 69.6377 31.732C69.2057 32.476 68.5997 33.064 67.8197 33.496C67.0517 33.916 66.1697 34.126 65.1737 34.126ZM65.1737 32.2C65.7257 32.2 66.2177 32.08 66.6497 31.84C67.0817 31.6 67.4177 31.252 67.6577 30.796C67.9097 30.34 68.0357 29.806 68.0357 29.194C68.0357 28.57 67.9097 28.036 67.6577 27.592C67.4177 27.136 67.0817 26.788 66.6497 26.548C66.2177 26.308 65.7317 26.188 65.1917 26.188C64.6397 26.188 64.1477 26.308 63.7157 26.548C63.2957 26.788 62.9597 27.136 62.7077 27.592C62.4557 28.036 62.3297 28.57 62.3297 29.194C62.3297 29.806 62.4557 30.34 62.7077 30.796C62.9597 31.252 63.2957 31.6 63.7157 31.84C64.1477 32.08 64.6337 32.2 65.1737 32.2ZM71.217 33.982L71.325 32.092C71.409 32.104 71.487 32.116 71.559 32.128C71.631 32.14 71.697 32.146 71.757 32.146C72.129 32.146 72.417 32.032 72.621 31.804C72.825 31.576 72.975 31.27 73.071 30.886C73.179 30.49 73.251 30.052 73.287 29.572C73.335 29.08 73.371 28.588 73.395 28.096L73.557 24.388H81.333V34H79.083V25.684L79.605 26.296H75.033L75.519 25.666L75.393 28.204C75.357 29.056 75.285 29.848 75.177 30.58C75.081 31.3 74.925 31.93 74.709 32.47C74.505 33.01 74.217 33.43 73.845 33.73C73.485 34.03 73.023 34.18 72.459 34.18C72.279 34.18 72.081 34.162 71.865 34.126C71.661 34.09 71.445 34.042 71.217 33.982ZM85.4272 37.618C84.9592 37.618 84.4912 37.54 84.0232 37.384C83.5552 37.228 83.1652 37.012 82.8532 36.736L83.7532 35.08C83.9812 35.284 84.2392 35.446 84.5272 35.566C84.8152 35.686 85.1092 35.746 85.4092 35.746C85.8172 35.746 86.1472 35.644 86.3992 35.44C86.6512 35.236 86.8852 34.894 87.1012 34.414L87.6592 33.154L87.8392 32.884L91.4752 24.388H93.6352L89.1352 34.774C88.8352 35.494 88.4992 36.064 88.1272 36.484C87.7672 36.904 87.3592 37.198 86.9032 37.366C86.4592 37.534 85.9672 37.618 85.4272 37.618ZM87.4072 34.342L83.0692 24.388H85.4092L88.9372 32.686L87.4072 34.342ZM102.292 34L98.8179 29.392L100.654 28.258L104.938 34H102.292ZM95.3979 34V24.388H97.6479V34H95.3979ZM96.9819 30.148V28.276H100.24V30.148H96.9819ZM100.87 29.464L98.7639 29.212L102.292 24.388H104.704L100.87 29.464ZM111.9 34V24.388H114.258L118.128 31.21H117.192L121.26 24.388H123.366L123.384 34H121.35V26.8L121.71 27.034L118.11 32.992H117.138L113.52 26.872L113.952 26.764V34H111.9ZM132.433 34V32.056L132.307 31.642V28.24C132.307 27.58 132.109 27.07 131.713 26.71C131.317 26.338 130.717 26.152 129.913 26.152C129.373 26.152 128.839 26.236 128.311 26.404C127.795 26.572 127.357 26.806 126.997 27.106L126.115 25.468C126.631 25.072 127.243 24.778 127.951 24.586C128.671 24.382 129.415 24.28 130.183 24.28C131.575 24.28 132.649 24.616 133.405 25.288C134.173 25.948 134.557 26.974 134.557 28.366V34H132.433ZM129.409 34.126C128.689 34.126 128.059 34.006 127.519 33.766C126.979 33.514 126.559 33.172 126.259 32.74C125.971 32.296 125.827 31.798 125.827 31.246C125.827 30.706 125.953 30.22 126.205 29.788C126.469 29.356 126.895 29.014 127.483 28.762C128.071 28.51 128.851 28.384 129.823 28.384H132.613V29.878H129.985C129.217 29.878 128.701 30.004 128.437 30.256C128.173 30.496 128.041 30.796 128.041 31.156C128.041 31.564 128.203 31.888 128.527 32.128C128.851 32.368 129.301 32.488 129.877 32.488C130.429 32.488 130.921 32.362 131.353 32.11C131.797 31.858 132.115 31.486 132.307 30.994L132.685 32.344C132.469 32.908 132.079 33.346 131.515 33.658C130.963 33.97 130.261 34.126 129.409 34.126ZM143.374 34V32.056L143.248 31.642V28.24C143.248 27.58 143.05 27.07 142.654 26.71C142.258 26.338 141.658 26.152 140.854 26.152C140.314 26.152 139.78 26.236 139.252 26.404C138.736 26.572 138.298 26.806 137.938 27.106L137.056 25.468C137.572 25.072 138.184 24.778 138.892 24.586C139.612 24.382 140.356 24.28 141.124 24.28C142.516 24.28 143.59 24.616 144.346 25.288C145.114 25.948 145.498 26.974 145.498 28.366V34H143.374ZM140.35 34.126C139.63 34.126 139 34.006 138.46 33.766C137.92 33.514 137.5 33.172 137.2 32.74C136.912 32.296 136.768 31.798 136.768 31.246C136.768 30.706 136.894 30.22 137.146 29.788C137.41 29.356 137.836 29.014 138.424 28.762C139.012 28.51 139.792 28.384 140.764 28.384H143.554V29.878H140.926C140.158 29.878 139.642 30.004 139.378 30.256C139.114 30.496 138.982 30.796 138.982 31.156C138.982 31.564 139.144 31.888 139.468 32.128C139.792 32.368 140.242 32.488 140.818 32.488C141.37 32.488 141.862 32.362 142.294 32.11C142.738 31.858 143.056 31.486 143.248 30.994L143.626 32.344C143.41 32.908 143.02 33.346 142.456 33.658C141.904 33.97 141.202 34.126 140.35 34.126ZM147.078 33.982L147.186 32.092C147.27 32.104 147.348 32.116 147.42 32.128C147.492 32.14 147.558 32.146 147.618 32.146C147.99 32.146 148.278 32.032 148.482 31.804C148.686 31.576 148.836 31.27 148.932 30.886C149.04 30.49 149.112 30.052 149.148 29.572C149.196 29.08 149.232 28.588 149.256 28.096L149.418 24.388H157.194V34H154.944V25.684L155.466 26.296H150.894L151.38 25.666L151.254 28.204C151.218 29.056 151.146 29.848 151.038 30.58C150.942 31.3 150.786 31.93 150.57 32.47C150.366 33.01 150.078 33.43 149.706 33.73C149.346 34.03 148.884 34.18 148.32 34.18C148.14 34.18 147.942 34.162 147.726 34.126C147.522 34.09 147.306 34.042 147.078 33.982ZM170.126 34V24.388H172.376V34H170.126ZM165.104 27.556C166.34 27.556 167.276 27.832 167.912 28.384C168.56 28.936 168.884 29.716 168.884 30.724C168.884 31.768 168.524 32.584 167.804 33.172C167.096 33.748 166.088 34.03 164.78 34.018L160.424 34V24.388H162.674V27.538L165.104 27.556ZM164.582 32.362C165.242 32.374 165.746 32.236 166.094 31.948C166.442 31.66 166.616 31.24 166.616 30.688C166.616 30.136 166.442 29.74 166.094 29.5C165.758 29.248 165.254 29.116 164.582 29.104L162.674 29.086V32.344L164.582 32.362ZM175.601 34V24.388H177.959L181.829 31.21H180.893L184.961 24.388H187.067L187.085 34H185.051V26.8L185.411 27.034L181.811 32.992H180.839L177.221 26.872L177.653 26.764V34H175.601ZM196.135 34V32.056L196.009 31.642V28.24C196.009 27.58 195.811 27.07 195.415 26.71C195.019 26.338 194.419 26.152 193.615 26.152C193.075 26.152 192.541 26.236 192.013 26.404C191.497 26.572 191.059 26.806 190.699 27.106L189.817 25.468C190.333 25.072 190.945 24.778 191.653 24.586C192.373 24.382 193.117 24.28 193.885 24.28C195.277 24.28 196.351 24.616 197.107 25.288C197.875 25.948 198.259 26.974 198.259 28.366V34H196.135ZM193.111 34.126C192.391 34.126 191.761 34.006 191.221 33.766C190.681 33.514 190.261 33.172 189.961 32.74C189.673 32.296 189.529 31.798 189.529 31.246C189.529 30.706 189.655 30.22 189.907 29.788C190.171 29.356 190.597 29.014 191.185 28.762C191.773 28.51 192.553 28.384 193.525 28.384H196.315V29.878H193.687C192.919 29.878 192.403 30.004 192.139 30.256C191.875 30.496 191.743 30.796 191.743 31.156C191.743 31.564 191.905 31.888 192.229 32.128C192.553 32.368 193.003 32.488 193.579 32.488C194.131 32.488 194.623 32.362 195.055 32.11C195.499 31.858 195.817 31.486 196.009 30.994L196.387 32.344C196.171 32.908 195.781 33.346 195.217 33.658C194.665 33.97 193.963 34.126 193.111 34.126ZM203.241 34V25.756L203.763 26.296H199.857V24.388H208.857V26.296H204.969L205.491 25.756V34H203.241Z" fill="#1100D9"/>
</svg>
